<mxfile host="app.diagrams.net" agent="Mozilla/5.0 (Windows NT 10.0; Win64; x64) AppleWebKit/537.36 (KHTML, like Gecko) Chrome/136.0.0.0 Safari/537.36" version="27.1.0">
  <diagram name="Page-1" id="SnM_GHgDkKM47Yem6eQU">
    <mxGraphModel dx="2066" dy="1137" grid="1" gridSize="10" guides="1" tooltips="1" connect="1" arrows="1" fold="1" page="1" pageScale="1" pageWidth="1100" pageHeight="850" math="0" shadow="0">
      <root>
        <mxCell id="0" />
        <mxCell id="1" parent="0" />
        <mxCell id="kWtmDi-7hQEqduyQhaUz-1" value="" style="image;aspect=fixed;html=1;points=[];align=center;fontSize=12;image=img/lib/azure2/general/Browser.svg;" parent="1" vertex="1">
          <mxGeometry x="80" y="165" width="65" height="52" as="geometry" />
        </mxCell>
        <mxCell id="kWtmDi-7hQEqduyQhaUz-4" value="" style="image;aspect=fixed;html=1;points=[];align=center;fontSize=12;image=img/lib/azure2/storage/Storage_Accounts.svg;" parent="1" vertex="1">
          <mxGeometry x="260" y="166" width="65" height="52" as="geometry" />
        </mxCell>
        <mxCell id="kWtmDi-7hQEqduyQhaUz-5" value="" style="image;sketch=0;aspect=fixed;html=1;points=[];align=center;fontSize=12;image=img/lib/mscae/Event_Grid.svg;" parent="1" vertex="1">
          <mxGeometry x="420" y="165" width="50" height="50" as="geometry" />
        </mxCell>
        <mxCell id="kWtmDi-7hQEqduyQhaUz-9" value="" style="outlineConnect=0;dashed=0;verticalLabelPosition=bottom;verticalAlign=top;align=center;html=1;shape=mxgraph.aws3.http_notification;fillColor=#D9A741;gradientColor=none;" parent="1" vertex="1">
          <mxGeometry x="590" y="153" width="100.5" height="63" as="geometry" />
        </mxCell>
        <mxCell id="kWtmDi-7hQEqduyQhaUz-10" value="" style="image;aspect=fixed;html=1;points=[];align=center;fontSize=12;image=img/lib/azure2/iot/Logic_Apps.svg;" parent="1" vertex="1">
          <mxGeometry x="790" y="158.5" width="67" height="52" as="geometry" />
        </mxCell>
        <mxCell id="kWtmDi-7hQEqduyQhaUz-11" value="" style="shape=image;html=1;verticalAlign=top;verticalLabelPosition=bottom;labelBackgroundColor=#ffffff;imageAspect=0;aspect=fixed;image=https://cdn0.iconfinder.com/data/icons/logos-microsoft-office-365/128/Microsoft_Office-07-128.png" parent="1" vertex="1">
          <mxGeometry x="930" y="153" width="68" height="68" as="geometry" />
        </mxCell>
        <mxCell id="kWtmDi-7hQEqduyQhaUz-12" value="&lt;h1 style=&quot;box-sizing: inherit; outline-color: inherit; margin: 0px 0px 1.5rem; padding: 0px; word-break: break-word; line-height: 1.125; color: rgb(22, 22, 22); font-family: &amp;quot;Segoe UI&amp;quot;, SegoeUI, &amp;quot;Helvetica Neue&amp;quot;, Helvetica, Arial, sans-serif; text-align: start; background-color: rgb(255, 255, 255);&quot; class=&quot;title is-2&quot;&gt;&lt;font style=&quot;font-size: 10px;&quot;&gt;azure storage explorer&lt;/font&gt;&lt;/h1&gt;" style="text;strokeColor=none;align=center;fillColor=none;html=1;verticalAlign=middle;whiteSpace=wrap;rounded=0;" parent="1" vertex="1">
          <mxGeometry x="50" y="228" width="130" height="12" as="geometry" />
        </mxCell>
        <mxCell id="kWtmDi-7hQEqduyQhaUz-15" value="" style="endArrow=classic;html=1;rounded=0;entryX=0.062;entryY=0.5;entryDx=0;entryDy=0;entryPerimeter=0;" parent="1" target="kWtmDi-7hQEqduyQhaUz-4" edge="1">
          <mxGeometry width="50" height="50" relative="1" as="geometry">
            <mxPoint x="145" y="190" as="sourcePoint" />
            <mxPoint x="195" y="140" as="targetPoint" />
          </mxGeometry>
        </mxCell>
        <mxCell id="kWtmDi-7hQEqduyQhaUz-16" value="&lt;h1 style=&quot;box-sizing: inherit; outline-color: inherit; margin: 0px 0px 1.5rem; padding: 0px; word-break: break-word; line-height: 1.125; color: rgb(22, 22, 22); font-family: &amp;quot;Segoe UI&amp;quot;, SegoeUI, &amp;quot;Helvetica Neue&amp;quot;, Helvetica, Arial, sans-serif; text-align: start; background-color: rgb(255, 255, 255);&quot; class=&quot;title is-2&quot;&gt;&lt;font style=&quot;font-size: 10px;&quot;&gt;Stroage Account&lt;/font&gt;&lt;/h1&gt;" style="text;strokeColor=none;align=center;fillColor=none;html=1;verticalAlign=middle;whiteSpace=wrap;rounded=0;" parent="1" vertex="1">
          <mxGeometry x="230" y="228" width="130" height="22" as="geometry" />
        </mxCell>
        <mxCell id="kWtmDi-7hQEqduyQhaUz-17" value="&lt;h1 style=&quot;box-sizing: inherit; outline-color: inherit; margin: 0px 0px 1.5rem; padding: 0px; word-break: break-word; line-height: 1.125; color: rgb(22, 22, 22); font-family: &amp;quot;Segoe UI&amp;quot;, SegoeUI, &amp;quot;Helvetica Neue&amp;quot;, Helvetica, Arial, sans-serif; text-align: start; background-color: rgb(255, 255, 255);&quot; class=&quot;title is-2&quot;&gt;&lt;font style=&quot;font-size: 10px;&quot;&gt;.csv file copied&lt;/font&gt;&lt;/h1&gt;" style="text;strokeColor=none;align=center;fillColor=none;html=1;verticalAlign=middle;whiteSpace=wrap;rounded=0;" parent="1" vertex="1">
          <mxGeometry x="130" y="170.5" width="130" height="12" as="geometry" />
        </mxCell>
        <mxCell id="kWtmDi-7hQEqduyQhaUz-18" value="" style="endArrow=classic;html=1;rounded=0;entryX=0.2;entryY=0.5;entryDx=0;entryDy=0;entryPerimeter=0;exitX=0.969;exitY=0.442;exitDx=0;exitDy=0;exitPerimeter=0;" parent="1" source="kWtmDi-7hQEqduyQhaUz-4" target="kWtmDi-7hQEqduyQhaUz-5" edge="1">
          <mxGeometry width="50" height="50" relative="1" as="geometry">
            <mxPoint x="325" y="199" as="sourcePoint" />
            <mxPoint x="375" y="149" as="targetPoint" />
          </mxGeometry>
        </mxCell>
        <mxCell id="kWtmDi-7hQEqduyQhaUz-19" value="&lt;h1 style=&quot;box-sizing: inherit; outline-color: inherit; margin: 0px 0px 1.5rem; padding: 0px; word-break: break-word; line-height: 1.125; color: rgb(22, 22, 22); font-family: &amp;quot;Segoe UI&amp;quot;, SegoeUI, &amp;quot;Helvetica Neue&amp;quot;, Helvetica, Arial, sans-serif; text-align: start; background-color: rgb(255, 255, 255);&quot; class=&quot;title is-2&quot;&gt;&lt;font style=&quot;font-size: 10px;&quot;&gt;Created File&lt;/font&gt;&lt;/h1&gt;" style="text;strokeColor=none;align=center;fillColor=none;html=1;verticalAlign=middle;whiteSpace=wrap;rounded=0;" parent="1" vertex="1">
          <mxGeometry x="300" y="170.5" width="130" height="12" as="geometry" />
        </mxCell>
        <mxCell id="kWtmDi-7hQEqduyQhaUz-21" value="&lt;h1 style=&quot;box-sizing: inherit; outline-color: inherit; margin: 0px 0px 1.5rem; padding: 0px; word-break: break-word; line-height: 1.125; color: rgb(22, 22, 22); font-family: &amp;quot;Segoe UI&amp;quot;, SegoeUI, &amp;quot;Helvetica Neue&amp;quot;, Helvetica, Arial, sans-serif; text-align: start; background-color: rgb(255, 255, 255);&quot; class=&quot;title is-2&quot;&gt;&lt;font style=&quot;font-size: 10px;&quot;&gt;Event Grid&lt;/font&gt;&lt;/h1&gt;" style="text;strokeColor=none;align=center;fillColor=none;html=1;verticalAlign=middle;whiteSpace=wrap;rounded=0;" parent="1" vertex="1">
          <mxGeometry x="380" y="228" width="130" height="22" as="geometry" />
        </mxCell>
        <mxCell id="kWtmDi-7hQEqduyQhaUz-23" value="" style="endArrow=classic;html=1;rounded=0;exitX=0.92;exitY=0.38;exitDx=0;exitDy=0;exitPerimeter=0;" parent="1" source="kWtmDi-7hQEqduyQhaUz-5" target="kWtmDi-7hQEqduyQhaUz-9" edge="1">
          <mxGeometry width="50" height="50" relative="1" as="geometry">
            <mxPoint x="470" y="199" as="sourcePoint" />
            <mxPoint x="520" y="149" as="targetPoint" />
          </mxGeometry>
        </mxCell>
        <mxCell id="kWtmDi-7hQEqduyQhaUz-24" value="&lt;h1 style=&quot;box-sizing: inherit; outline-color: inherit; margin: 0px 0px 1.5rem; padding: 0px; word-break: break-word; line-height: 1.125; color: rgb(22, 22, 22); font-family: &amp;quot;Segoe UI&amp;quot;, SegoeUI, &amp;quot;Helvetica Neue&amp;quot;, Helvetica, Arial, sans-serif; text-align: start; background-color: rgb(255, 255, 255);&quot; class=&quot;title is-2&quot;&gt;&lt;font style=&quot;font-size: 10px;&quot;&gt;Trigger Event Grid&lt;/font&gt;&lt;/h1&gt;" style="text;strokeColor=none;align=center;fillColor=none;html=1;verticalAlign=middle;whiteSpace=wrap;rounded=0;" parent="1" vertex="1">
          <mxGeometry x="460" y="166" width="130" height="22" as="geometry" />
        </mxCell>
        <mxCell id="kWtmDi-7hQEqduyQhaUz-25" value="" style="endArrow=classic;html=1;rounded=0;" parent="1" source="kWtmDi-7hQEqduyQhaUz-9" target="kWtmDi-7hQEqduyQhaUz-10" edge="1">
          <mxGeometry width="50" height="50" relative="1" as="geometry">
            <mxPoint x="690.5" y="188" as="sourcePoint" />
            <mxPoint x="740.5" y="138" as="targetPoint" />
          </mxGeometry>
        </mxCell>
        <mxCell id="kWtmDi-7hQEqduyQhaUz-26" value="&lt;h1 style=&quot;box-sizing: inherit; outline-color: inherit; margin: 0px 0px 1.5rem; padding: 0px; word-break: break-word; line-height: 1.125; color: rgb(22, 22, 22); font-family: &amp;quot;Segoe UI&amp;quot;, SegoeUI, &amp;quot;Helvetica Neue&amp;quot;, Helvetica, Arial, sans-serif; text-align: start; background-color: rgb(255, 255, 255);&quot; class=&quot;title is-2&quot;&gt;&lt;font style=&quot;font-size: 10px;&quot;&gt;Logic app url&lt;/font&gt;&lt;/h1&gt;" style="text;strokeColor=none;align=center;fillColor=none;html=1;verticalAlign=middle;whiteSpace=wrap;rounded=0;" parent="1" vertex="1">
          <mxGeometry x="670" y="165" width="130" height="22" as="geometry" />
        </mxCell>
        <mxCell id="kWtmDi-7hQEqduyQhaUz-27" value="&lt;h1 style=&quot;box-sizing: inherit; outline-color: inherit; margin: 0px 0px 1.5rem; padding: 0px; word-break: break-word; line-height: 1.125; color: rgb(22, 22, 22); font-family: &amp;quot;Segoe UI&amp;quot;, SegoeUI, &amp;quot;Helvetica Neue&amp;quot;, Helvetica, Arial, sans-serif; text-align: start; background-color: rgb(255, 255, 255);&quot; class=&quot;title is-2&quot;&gt;&lt;font style=&quot;font-size: 10px;&quot;&gt;Logic app&lt;/font&gt;&lt;/h1&gt;" style="text;strokeColor=none;align=center;fillColor=none;html=1;verticalAlign=middle;whiteSpace=wrap;rounded=0;" parent="1" vertex="1">
          <mxGeometry x="758.5" y="223" width="130" height="22" as="geometry" />
        </mxCell>
        <mxCell id="kWtmDi-7hQEqduyQhaUz-28" value="&lt;h1 style=&quot;box-sizing: inherit; outline-color: inherit; margin: 0px 0px 1.5rem; padding: 0px; word-break: break-word; line-height: 1.125; color: rgb(22, 22, 22); font-family: &amp;quot;Segoe UI&amp;quot;, SegoeUI, &amp;quot;Helvetica Neue&amp;quot;, Helvetica, Arial, sans-serif; text-align: start; background-color: rgb(255, 255, 255);&quot; class=&quot;title is-2&quot;&gt;&lt;font style=&quot;font-size: 10px;&quot;&gt;Microsoft Outlook&lt;/font&gt;&lt;/h1&gt;" style="text;strokeColor=none;align=center;fillColor=none;html=1;verticalAlign=middle;whiteSpace=wrap;rounded=0;" parent="1" vertex="1">
          <mxGeometry x="910" y="228" width="130" height="22" as="geometry" />
        </mxCell>
        <mxCell id="kWtmDi-7hQEqduyQhaUz-29" value="" style="endArrow=classic;html=1;rounded=0;" parent="1" target="kWtmDi-7hQEqduyQhaUz-11" edge="1">
          <mxGeometry width="50" height="50" relative="1" as="geometry">
            <mxPoint x="850" y="187" as="sourcePoint" />
            <mxPoint x="900" y="137" as="targetPoint" />
          </mxGeometry>
        </mxCell>
      </root>
    </mxGraphModel>
  </diagram>
</mxfile>
